<svg xmlns="http://www.w3.org/2000/svg" width="17" height="17" viewBox="0 0 17 17">
  <g id="Group_1" data-name="Group 1" transform="translate(-327 -210)">
    <rect id="Rectangle_1" data-name="Rectangle 1" width="17" height="17" rx="2" transform="translate(327 210)" fill="#216dfe"/>
    <path id="Path_42" data-name="Path 42" d="M50.677,64.139c.234,0,.47.013.7.023.153.006.305.028.448.043l-.011,1.4h-.577c-.116,0-.232,0-.349,0-.374.012-.649.151-.668.613-.012.333-.021,1.067-.021,1.106h1.558c-.076.536-.145,1.05-.221,1.568H50.2l-.03,3.914H48.532l.03-3.92H47.219l.012-1.558H48.58v-.117c0-.314,0-.628.01-.942a3.882,3.882,0,0,1,.051-.6,1.771,1.771,0,0,1,.72-1.164,2.082,2.082,0,0,1,1.184-.363Z" transform="translate(285.781 149.861)" fill="#fff"/>
  </g>
</svg>
