<svg xmlns="http://www.w3.org/2000/svg" width="12.001" height="12" viewBox="0 0 12.001 12">
  <g id="Page-1" transform="translate(0.003)">
    <g id="_003---Call" data-name="003---Call" transform="translate(-0.003)">
      <path id="Shape" d="M5.966,7.078A4.843,4.843,0,0,1,4.5,4.328a.411.411,0,0,1,.118-.344l.927-.926a.414.414,0,0,0,.058-.512L4.132.254A.414.414,0,0,0,3.6.1L1.226,1.219A.412.412,0,0,0,1,1.63,11.452,11.452,0,0,0,4.486,8.558a11.449,11.449,0,0,0,6.928,3.487.412.412,0,0,0,.411-.228l1.116-2.369a.414.414,0,0,0-.15-.535L10.5,7.438a.414.414,0,0,0-.512.058l-.926.927a.411.411,0,0,1-.344.118,4.843,4.843,0,0,1-2.75-1.462Z" transform="translate(-0.997 -0.047)" fill="#272833"/>
      <path id="Shape-2" data-name="Shape" d="M31.931,14.345a.414.414,0,0,1-.414-.414,3.107,3.107,0,0,0-3.1-3.1.414.414,0,1,1,0-.828,3.935,3.935,0,0,1,3.931,3.931A.414.414,0,0,1,31.931,14.345Z" transform="translate(-22.413 -7.931)" fill="#272833"/>
      <path id="Shape-3" data-name="Shape" d="M34,6.414A.414.414,0,0,1,33.586,6,5.178,5.178,0,0,0,28.414.828a.414.414,0,0,1,0-.828,6.007,6.007,0,0,1,6,6A.414.414,0,0,1,34,6.414Z" transform="translate(-22.413 0)" fill="#272833"/>
    </g>
  </g>
</svg>
