<svg id="globe" xmlns="http://www.w3.org/2000/svg" width="12" height="12" viewBox="0 0 12 12">
  <g id="Group_1" data-name="Group 1">
    <path id="Path_1" data-name="Path 1" d="M6,0a6,6,0,1,0,6,6A6,6,0,0,0,6,0ZM3.678,1.236a13.687,13.687,0,0,0-.457,1.507,9.481,9.481,0,0,1-1.06-.393A5.311,5.311,0,0,1,3.678,1.236ZM1.7,2.912a10.2,10.2,0,0,0,1.378.522,13.875,13.875,0,0,0-.232,2.215H.715A5.247,5.247,0,0,1,1.7,2.912Zm0,6.176A5.247,5.247,0,0,1,.715,6.352H2.841a13.875,13.875,0,0,0,.232,2.215A10.2,10.2,0,0,0,1.7,9.088Zm.466.561a9.47,9.47,0,0,1,1.06-.393,13.691,13.691,0,0,0,.457,1.507A5.312,5.312,0,0,1,2.161,9.65Zm3.487,1.636A5.3,5.3,0,0,1,4.567,11.1,13.027,13.027,0,0,1,3.9,9.078a9.546,9.546,0,0,1,1.747-.223Zm0-3.134a10.25,10.25,0,0,0-1.893.238,13.178,13.178,0,0,1-.211-2.038h2.1Zm0-2.5h-2.1a13.178,13.178,0,0,1,.211-2.038,10.25,10.25,0,0,0,1.893.238Zm0-2.5A9.546,9.546,0,0,1,3.9,2.922,13.027,13.027,0,0,1,4.567.9,5.3,5.3,0,0,1,5.648.715ZM10.3,2.912a5.247,5.247,0,0,1,.981,2.737H9.159a13.875,13.875,0,0,0-.232-2.215A10.2,10.2,0,0,0,10.3,2.912ZM9.839,2.35a9.47,9.47,0,0,1-1.06.393,13.692,13.692,0,0,0-.457-1.507A5.312,5.312,0,0,1,9.839,2.35ZM6.352.715A5.3,5.3,0,0,1,7.433.9,13.027,13.027,0,0,1,8.1,2.922a9.546,9.546,0,0,1-1.747.223Zm0,3.134a10.25,10.25,0,0,0,1.893-.238,13.178,13.178,0,0,1,.211,2.038h-2.1ZM7.433,11.1a5.3,5.3,0,0,1-1.081.183V8.855A9.546,9.546,0,0,1,8.1,9.078,13.026,13.026,0,0,1,7.433,11.1ZM6.352,8.151v-1.8h2.1a13.178,13.178,0,0,1-.211,2.038A10.25,10.25,0,0,0,6.352,8.151Zm1.97,2.613a13.686,13.686,0,0,0,.457-1.507,9.481,9.481,0,0,1,1.06.393A5.311,5.311,0,0,1,8.322,10.764ZM10.3,9.088a10.2,10.2,0,0,0-1.378-.522,13.875,13.875,0,0,0,.232-2.215h2.126A5.247,5.247,0,0,1,10.3,9.088Z" fill="#272833"/>
  </g>
</svg>
