<svg xmlns="http://www.w3.org/2000/svg" width="17" height="17" viewBox="0 0 17 17">
  <g id="Group_2" data-name="Group 2" transform="translate(-350 -210)">
    <rect id="Rectangle_1" data-name="Rectangle 1" width="17" height="17" rx="2" transform="translate(350 210)" fill="#216dfe"/>
    <path id="Path_150" data-name="Path 150" d="M147.632,73.4a2.194,2.194,0,0,1-2.036-1.519,2.176,2.176,0,0,0,.938-.028l.032-.014a2.185,2.185,0,0,1-1.421-1,2.125,2.125,0,0,1-.321-1.164,2.158,2.158,0,0,0,.974.265,2.2,2.2,0,0,1-.9-1.328,2.168,2.168,0,0,1,.235-1.585,6.262,6.262,0,0,0,4.514,2.287c-.013-.087-.026-.163-.035-.24a2.188,2.188,0,0,1,3.72-1.81.111.111,0,0,0,.117.035,4.41,4.41,0,0,0,1.273-.489l.029-.015h.015a2.241,2.241,0,0,1-.937,1.191,4.2,4.2,0,0,0,1.219-.328l.009.01c-.084.11-.165.222-.251.328a4.28,4.28,0,0,1-.8.756.074.074,0,0,0-.036.069,6.034,6.034,0,0,1-.041.972,6.446,6.446,0,0,1-.564,1.949,6.3,6.3,0,0,1-1.183,1.725,5.85,5.85,0,0,1-3.008,1.676,6.547,6.547,0,0,1-1.219.145,6.18,6.18,0,0,1-3.5-.94l-.051-.034a4.424,4.424,0,0,0,2.189-.3,4.336,4.336,0,0,0,1.039-.614Z" transform="translate(208.596 147.378)" fill="#fff" fill-rule="evenodd"/>
  </g>
</svg>
