<svg xmlns="http://www.w3.org/2000/svg" width="15.079" height="12" viewBox="0 0 15.079 12">
  <g id="home" transform="translate(0.001 -46.994)">
    <g id="Group_2" data-name="Group 2" transform="translate(-0.001 46.994)">
      <path id="Path_2" data-name="Path 2" d="M71.085,120.939l-5.378,4.433a.127.127,0,0,1,0,.028.128.128,0,0,0,0,.028v4.489a.607.607,0,0,0,.6.6h3.591v-3.592h2.395v3.592h3.591a.608.608,0,0,0,.6-.6v-4.489a.132.132,0,0,0-.009-.056Z" transform="translate(-63.546 -118.517)" fill="#fff"/>
      <path id="Path_3" data-name="Path 3" d="M14.974,52.84l-2.048-1.7V47.321a.288.288,0,0,0-.3-.3h-1.8a.288.288,0,0,0-.3.3v1.824L8.25,47.237a1.16,1.16,0,0,0-1.421,0L.1,52.84a.272.272,0,0,0-.1.2.3.3,0,0,0,.065.22l.58.692a.319.319,0,0,0,.2.1.348.348,0,0,0,.225-.065l6.472-5.4,6.472,5.4a.288.288,0,0,0,.2.065h.028a.319.319,0,0,0,.2-.1l.58-.692a.3.3,0,0,0,.065-.22A.273.273,0,0,0,14.974,52.84Z" transform="translate(0.001 -46.994)" fill="#fff"/>
    </g>
  </g>
</svg>
